<svg width="661pt" height="231pt" viewBox="0.00 0.00 661.00 231.00" xmlns="http://www.w3.org/2000/svg" xmlns:xlink="http://www.w3.org/1999/xlink">
<g id="graph0" class="graph" transform="scale(1 1) rotate(0) translate(4 226.8)">
<title>retimed</title>
<polygon fill="white" stroke="none" points="-4,4 -4,-226.8 656.69,-226.8 656.69,4 -4,4"/>
<text xml:space="preserve" text-anchor="middle" x="326.34" y="-8.2" font-family="Times,serif" font-size="14.00">retimed</text>
<!-- n1 -->
<g id="node1" class="node">
<title>n1</title>
<polygon fill="none" stroke="black" points="652.69,-93.34 652.69,-108.26 636.87,-118.8 614.51,-118.8 598.69,-108.26 598.69,-93.34 614.51,-82.8 636.87,-82.8 652.69,-93.34"/>
<text xml:space="preserve" text-anchor="middle" x="625.69" y="-96.6" font-family="Times,serif" font-size="14.00">y</text>
</g>
<!-- n7 -->
<g id="node2" class="node">
<title>n7</title>
<polygon fill="none" stroke="black" points="54,-35.34 54,-50.26 38.18,-60.8 15.82,-60.8 0,-50.26 0,-35.34 15.82,-24.8 38.18,-24.8 54,-35.34"/>
<text xml:space="preserve" text-anchor="middle" x="27" y="-38.6" font-family="Times,serif" font-size="14.00">d</text>
</g>
<!-- c22 -->
<g id="node10" class="node">
<title>c22</title>
<polygon fill="none" stroke="black" points="90,-60 90,-109.6 188.55,-109.6 188.55,-60 90,-60"/>
<text xml:space="preserve" text-anchor="middle" x="103.06" y="-93" font-family="Times,serif" font-size="14.00">A</text>
<polyline fill="none" stroke="black" points="90,-84.8 116.11,-84.8"/>
<text xml:space="preserve" text-anchor="middle" x="103.06" y="-68.2" font-family="Times,serif" font-size="14.00">B</text>
<polyline fill="none" stroke="black" points="116.11,-60 116.11,-109.6"/>
<text xml:space="preserve" text-anchor="middle" x="139.28" y="-80.6" font-family="Times,serif" font-size="14.00">AND</text>
<polyline fill="none" stroke="black" points="162.44,-60 162.44,-109.6"/>
<text xml:space="preserve" text-anchor="middle" x="175.5" y="-81" font-family="Times,serif" font-size="14.00">Y</text>
</g>
<!-- n7&#45;&gt;c22 -->
<g id="edge8" class="edge">
<title>n7:e-&gt;c22:w</title>
<path fill="none" stroke="black" d="M54,-42.8C70.02,-42.8 70.4,-60.51 79.34,-68.53"/>
<polygon fill="black" stroke="black" points="77.98,-71.76 88.58,-71.88 80.37,-65.18 77.98,-71.76"/>
</g>
<!-- n8 -->
<g id="node3" class="node">
<title>n8</title>
<polygon fill="none" stroke="black" points="54,-89.34 54,-104.26 38.18,-114.8 15.82,-114.8 0,-104.26 0,-89.34 15.82,-78.8 38.18,-78.8 54,-89.34"/>
<text xml:space="preserve" text-anchor="middle" x="27" y="-92.6" font-family="Times,serif" font-size="14.00">c</text>
</g>
<!-- n8&#45;&gt;c22 -->
<g id="edge9" class="edge">
<title>n8:e-&gt;c22:w</title>
<path fill="none" stroke="black" d="M54,-96.8C65.38,-96.8 70.68,-97 78.55,-97.12"/>
<polygon fill="black" stroke="black" points="78.46,-100.62 88.49,-97.19 78.51,-93.62 78.46,-100.62"/>
</g>
<!-- n9 -->
<g id="node4" class="node">
<title>n9</title>
<polygon fill="none" stroke="black" points="54,-143.34 54,-158.26 38.18,-168.8 15.82,-168.8 0,-158.26 0,-143.34 15.82,-132.8 38.18,-132.8 54,-143.34"/>
<text xml:space="preserve" text-anchor="middle" x="27" y="-146.6" font-family="Times,serif" font-size="14.00">b</text>
</g>
<!-- c23 -->
<g id="node11" class="node">
<title>c23</title>
<polygon fill="none" stroke="black" points="90,-138 90,-187.6 188.55,-187.6 188.55,-138 90,-138"/>
<text xml:space="preserve" text-anchor="middle" x="103.06" y="-171" font-family="Times,serif" font-size="14.00">A</text>
<polyline fill="none" stroke="black" points="90,-162.8 116.11,-162.8"/>
<text xml:space="preserve" text-anchor="middle" x="103.06" y="-146.2" font-family="Times,serif" font-size="14.00">B</text>
<polyline fill="none" stroke="black" points="116.11,-138 116.11,-187.6"/>
<text xml:space="preserve" text-anchor="middle" x="139.28" y="-158.6" font-family="Times,serif" font-size="14.00">AND</text>
<polyline fill="none" stroke="black" points="162.44,-138 162.44,-187.6"/>
<text xml:space="preserve" text-anchor="middle" x="175.5" y="-159" font-family="Times,serif" font-size="14.00">Y</text>
</g>
<!-- n9&#45;&gt;c23 -->
<g id="edge10" class="edge">
<title>n9:e-&gt;c23:w</title>
<path fill="none" stroke="black" d="M54,-150.8C65.38,-150.8 70.68,-150.6 78.55,-150.48"/>
<polygon fill="black" stroke="black" points="78.51,-153.98 88.49,-150.41 78.46,-146.98 78.51,-153.98"/>
</g>
<!-- n10 -->
<g id="node5" class="node">
<title>n10</title>
<polygon fill="none" stroke="black" points="54,-197.34 54,-212.26 38.18,-222.8 15.82,-222.8 0,-212.26 0,-197.34 15.82,-186.8 38.18,-186.8 54,-197.34"/>
<text xml:space="preserve" text-anchor="middle" x="27" y="-200.6" font-family="Times,serif" font-size="14.00">a</text>
</g>
<!-- n10&#45;&gt;c23 -->
<g id="edge1" class="edge">
<title>n10:e-&gt;c23:w</title>
<path fill="none" stroke="black" d="M54,-204.8C70.02,-204.8 70.4,-187.09 79.34,-179.07"/>
<polygon fill="black" stroke="black" points="80.37,-182.42 88.58,-175.72 77.98,-175.84 80.37,-182.42"/>
</g>
<!-- c15 -->
<g id="node6" class="node">
<title>c15</title>
<polygon fill="none" stroke="black" points="478.9,-76 478.9,-125.6 562.69,-125.6 562.69,-76 478.9,-76"/>
<text xml:space="preserve" text-anchor="middle" x="491.95" y="-109" font-family="Times,serif" font-size="14.00">D</text>
<polyline fill="none" stroke="black" points="478.9,-100.8 505.01,-100.8"/>
<text xml:space="preserve" text-anchor="middle" x="491.95" y="-84.2" font-family="Times,serif" font-size="14.00">C</text>
<polyline fill="none" stroke="black" points="505.01,-76 505.01,-125.6"/>
<text xml:space="preserve" text-anchor="middle" x="520.79" y="-96.6" font-family="Times,serif" font-size="14.00">FF</text>
<polyline fill="none" stroke="black" points="536.58,-76 536.58,-125.6"/>
<text xml:space="preserve" text-anchor="middle" x="549.63" y="-97" font-family="Times,serif" font-size="14.00">Q</text>
</g>
<!-- c15&#45;&gt;n1 -->
<g id="edge2" class="edge">
<title>c15:e-&gt;n1:w</title>
<path fill="none" stroke="black" d="M562.69,-101.2C574.07,-101.2 579.37,-101 587.24,-100.88"/>
<polygon fill="black" stroke="black" points="587.2,-104.38 597.18,-100.81 587.15,-97.38 587.2,-104.38"/>
</g>
<!-- c16 -->
<g id="node7" class="node">
<title>c16</title>
<polygon fill="none" stroke="black" points="224.55,-125 224.55,-174.6 308.34,-174.6 308.34,-125 224.55,-125"/>
<text xml:space="preserve" text-anchor="middle" x="237.61" y="-158" font-family="Times,serif" font-size="14.00">D</text>
<polyline fill="none" stroke="black" points="224.55,-149.8 250.66,-149.8"/>
<text xml:space="preserve" text-anchor="middle" x="237.61" y="-133.2" font-family="Times,serif" font-size="14.00">C</text>
<polyline fill="none" stroke="black" points="250.66,-125 250.66,-174.6"/>
<text xml:space="preserve" text-anchor="middle" x="266.45" y="-145.6" font-family="Times,serif" font-size="14.00">FF</text>
<polyline fill="none" stroke="black" points="282.23,-125 282.23,-174.6"/>
<text xml:space="preserve" text-anchor="middle" x="295.29" y="-146" font-family="Times,serif" font-size="14.00">Q</text>
</g>
<!-- c21 -->
<g id="node9" class="node">
<title>c21</title>
<polygon fill="none" stroke="black" points="344.34,-87 344.34,-136.6 442.9,-136.6 442.9,-87 344.34,-87"/>
<text xml:space="preserve" text-anchor="middle" x="357.4" y="-120" font-family="Times,serif" font-size="14.00">A</text>
<polyline fill="none" stroke="black" points="344.34,-111.8 370.46,-111.8"/>
<text xml:space="preserve" text-anchor="middle" x="357.4" y="-95.2" font-family="Times,serif" font-size="14.00">B</text>
<polyline fill="none" stroke="black" points="370.46,-87 370.46,-136.6"/>
<text xml:space="preserve" text-anchor="middle" x="393.62" y="-107.6" font-family="Times,serif" font-size="14.00">AND</text>
<polyline fill="none" stroke="black" points="416.79,-87 416.79,-136.6"/>
<text xml:space="preserve" text-anchor="middle" x="429.84" y="-108" font-family="Times,serif" font-size="14.00">Y</text>
</g>
<!-- c16&#45;&gt;c21 -->
<g id="edge6" class="edge">
<title>c16:e-&gt;c21:w</title>
<path fill="none" stroke="black" d="M308.34,-150.2C323.46,-150.2 324.96,-134.96 333.69,-127.82"/>
<polygon fill="black" stroke="black" points="334.57,-131.22 342.91,-124.69 332.32,-124.59 334.57,-131.22"/>
</g>
<!-- c17 -->
<g id="node8" class="node">
<title>c17</title>
<polygon fill="none" stroke="black" points="224.55,-52 224.55,-101.6 308.34,-101.6 308.34,-52 224.55,-52"/>
<text xml:space="preserve" text-anchor="middle" x="237.61" y="-85" font-family="Times,serif" font-size="14.00">D</text>
<polyline fill="none" stroke="black" points="224.55,-76.8 250.66,-76.8"/>
<text xml:space="preserve" text-anchor="middle" x="237.61" y="-60.2" font-family="Times,serif" font-size="14.00">C</text>
<polyline fill="none" stroke="black" points="250.66,-52 250.66,-101.6"/>
<text xml:space="preserve" text-anchor="middle" x="266.45" y="-72.6" font-family="Times,serif" font-size="14.00">FF</text>
<polyline fill="none" stroke="black" points="282.23,-52 282.23,-101.6"/>
<text xml:space="preserve" text-anchor="middle" x="295.29" y="-73" font-family="Times,serif" font-size="14.00">Q</text>
</g>
<!-- c17&#45;&gt;c21 -->
<g id="edge5" class="edge">
<title>c17:e-&gt;c21:w</title>
<path fill="none" stroke="black" d="M308.34,-77.2C322.44,-77.2 325.07,-89.69 333.43,-95.93"/>
<polygon fill="black" stroke="black" points="332.31,-99.25 342.9,-98.94 334.43,-92.58 332.31,-99.25"/>
</g>
<!-- c21&#45;&gt;c15 -->
<g id="edge3" class="edge">
<title>c21:e-&gt;c15:w</title>
<path fill="none" stroke="black" d="M442.9,-112.2C454.28,-112.2 459.58,-112.71 467.45,-113"/>
<polygon fill="black" stroke="black" points="467.32,-116.5 477.38,-113.17 467.45,-109.5 467.32,-116.5"/>
</g>
<!-- c22&#45;&gt;c17 -->
<g id="edge4" class="edge">
<title>c22:e-&gt;c17:w</title>
<path fill="none" stroke="black" d="M188.55,-85.2C200,-85.2 205.23,-87.22 213.08,-88.39"/>
<polygon fill="black" stroke="black" points="212.82,-91.88 223.04,-89.09 213.31,-84.9 212.82,-91.88"/>
</g>
<!-- c23&#45;&gt;c16 -->
<g id="edge7" class="edge">
<title>c23:e-&gt;c16:w</title>
<path fill="none" stroke="black" d="M188.55,-163.2C199.93,-163.2 205.24,-162.69 213.1,-162.4"/>
<polygon fill="black" stroke="black" points="213.1,-165.9 223.04,-162.23 212.98,-158.9 213.1,-165.9"/>
</g>
</g>
</svg>