<svg xmlns="http://www.w3.org/2000/svg" width="736" height="256" class="svgbob"><style>.svgbob line, .svgbob path, .svgbob circle, .svgbob rect, .svgbob polygon {
    stroke: black;
    stroke-width: 2;
    stroke-opacity: 1;
    fill-opacity: 1;
    stroke-linecap: round;
    stroke-linejoin: miter;
}
.svgbob text {
    white-space: pre;
    fill: black;
    font-family: Iosevka Fixed, monospace;
    font-size: 14px;
}
.svgbob rect.backdrop {
    stroke: none;
    fill: white;
}
.svgbob .broken {
    stroke-dasharray: 8;
}
.svgbob .filled {
    fill: black;
}
.svgbob .bg_filled {
    fill: white;
    stroke-width: 1;
}
.svgbob .nofill {
    fill: white;
}
.svgbob .end_marked_arrow {
    marker-end: url(#arrow);
}
.svgbob .start_marked_arrow {
    marker-start: url(#arrow);
}
.svgbob .end_marked_diamond {
    marker-end: url(#diamond);
}
.svgbob .start_marked_diamond {
    marker-start: url(#diamond);
}
.svgbob .end_marked_circle {
    marker-end: url(#circle);
}
.svgbob .start_marked_circle {
    marker-start: url(#circle);
}
.svgbob .end_marked_open_circle {
    marker-end: url(#open_circle);
}
.svgbob .start_marked_open_circle {
    marker-start: url(#open_circle);
}
.svgbob .end_marked_big_open_circle {
    marker-end: url(#big_open_circle);
}
.svgbob .start_marked_big_open_circle {
    marker-start: url(#big_open_circle);
}<!--separator--></style><defs><marker id="arrow" viewBox="-2 -2 8 8" refX="4" refY="2" markerWidth="7" markerHeight="7" orient="auto-start-reverse"><polygon points="0,0 0,4 4,2 0,0"></polygon></marker><marker id="diamond" viewBox="-2 -2 8 8" refX="4" refY="2" markerWidth="7" markerHeight="7" orient="auto-start-reverse"><polygon points="0,2 2,0 4,2 2,4 0,2"></polygon></marker><marker id="circle" viewBox="0 0 8 8" refX="4" refY="4" markerWidth="7" markerHeight="7" orient="auto-start-reverse"><circle cx="4" cy="4" r="2" class="filled"></circle></marker><marker id="open_circle" viewBox="0 0 8 8" refX="4" refY="4" markerWidth="7" markerHeight="7" orient="auto-start-reverse"><circle cx="4" cy="4" r="2" class="bg_filled"></circle></marker><marker id="big_open_circle" viewBox="0 0 8 8" refX="4" refY="4" markerWidth="7" markerHeight="7" orient="auto-start-reverse"><circle cx="4" cy="4" r="3" class="bg_filled"></circle></marker></defs><rect class="backdrop" x="0" y="0" width="736" height="256"></rect><text x="34" y="12" >x</text><line x1="32" y1="24" x2="200" y2="24" class="solid"></line><polygon points="200,20 208,24 200,28" class="filled"></polygon><text x="2" y="44" >y</text><line x1="20" y1="32" x2="20" y2="228" class="solid"></line><polygon points="16,228 24,228 20,240" class="filled"></polygon><text x="66" y="92" >0,0</text><text x="162" y="92" >1,0</text><line x1="368" y1="200" x2="720" y2="200" class="solid"></line><polygon points="720,196 728,200 720,204" class="filled"></polygon><text x="370" y="220" >t</text><line x1="256" y1="136" x2="312" y2="136" class="solid"></line><polygon points="312,132 320,136 312,140" class="filled"></polygon><text x="394" y="140" >0,0</text><text x="490" y="140" >1,0</text><text x="570" y="140" >0,1</text><text x="666" y="140" >1,1</text><text x="66" y="188" >0,1</text><text x="162" y="188" >1,1</text><g><line x1="36" y1="40" x2="212" y2="40" class="solid"></line><line x1="36" y1="40" x2="36" y2="232" class="solid"></line><line x1="124" y1="40" x2="124" y2="232" class="solid"></line><line x1="212" y1="40" x2="212" y2="232" class="solid"></line><line x1="36" y1="136" x2="212" y2="136" class="solid"></line><line x1="36" y1="232" x2="212" y2="232" class="solid"></line></g><g><line x1="364" y1="88" x2="716" y2="88" class="solid"></line><line x1="364" y1="88" x2="364" y2="184" class="solid"></line><line x1="452" y1="88" x2="452" y2="184" class="solid"></line><line x1="540" y1="88" x2="540" y2="184" class="solid"></line><line x1="628" y1="88" x2="628" y2="184" class="solid"></line><line x1="716" y1="88" x2="716" y2="184" class="solid"></line><line x1="364" y1="184" x2="716" y2="184" class="solid"></line></g></svg>